<svg id="Capa_1" enable-background="new 0 0 512 512" height="512" viewBox="0 0 512 512" width="512" xmlns="http://www.w3.org/2000/svg"><g><path d="m394.95 314.868h-4.441l6.712-91.131h24.11c16.953 0 30.697 13.743 30.697 30.697v3.357c-.001 31.523-25.555 57.077-57.078 57.077z" fill="#f9a58e"/><path d="m117.05 314.868h4.442l-6.712-91.131h-24.11c-16.953 0-30.697 13.743-30.697 30.697v3.357c0 31.523 25.554 57.077 57.077 57.077z" fill="#eaac9d"/><path d="m329.062 447.77v-26.122c-25.613 17.521-53.899 27.554-73.062 27.554s-47.449-10.033-73.062-27.554v26.122c0 14.558-8.35 27.826-21.475 34.124l-30.88 14.817c-3.929 1.885-2.586 7.789 1.772 7.789h247.29c4.358 0 5.701-5.903 1.772-7.789l-30.88-14.817c-13.125-6.298-21.475-19.565-21.475-34.124z" fill="#ffcbbe"/><path d="m399.077 198.519c6.125-83.159-59.693-154.002-143.077-154.002s-149.202 70.843-143.078 154.002l9.755 132.456c5.143 69.833 91.235 118.227 133.323 118.227s128.179-48.394 133.322-118.227c.001 0 9.756-132.456 9.755-132.456z" fill="#ffcbbe"/><path d="m299.304 51.157c39.234 28.044 63.609 75.288 59.774 127.362 0 0-9.755 132.456-9.755 132.456-5.143 69.833-91.234 118.227-133.323 118.227-8.735 0-19.366-2.085-30.774-6.013 24.997 16.567 52.179 26.012 70.773 26.012 42.088 0 128.179-48.394 133.322-118.227 0 0 9.755-132.456 9.755-132.456 5.015-68.078-38.188-127.903-99.772-147.361z" fill="#eaac9d"/><path d="m367.926 44.164c-20.236-35.049-65.054-47.058-100.103-26.822-4.292 2.478-8.239 5.325-11.823 8.477 20.006 17.596 28.72 44.711 23.203 70.376 24.351 8.122 43.015 28.679 48.458 54.136 4.588-1.536 9.091-3.551 13.443-6.064 35.049-20.235 47.058-65.053 26.822-100.103z" fill="#f6e781"/><path d="m232.797 96.195c-5.518-25.665 3.197-52.78 23.203-70.376-3.584-3.152-7.531-5.999-11.823-8.477-35.05-20.236-79.867-8.227-100.103 26.823s-8.227 79.867 26.823 100.103c4.352 2.513 8.855 4.528 13.443 6.064 5.442-25.457 24.106-46.014 48.457-54.137z" fill="#dd5790"/><path d="m232.797 96.195c7.292-2.432 15.093-3.75 23.203-3.75s15.911 1.317 23.203 3.75c5.518-25.665-3.197-52.78-23.203-70.376-20.006 17.596-28.721 44.711-23.203 70.376z" fill="#e7a561"/><path d="m256 135.798c-19.382 17.085-46.77 22.867-71.661 14.534-1.061 4.964-1.62 10.114-1.62 15.395 0 10.919 2.388 21.28 6.67 30.589h133.221c4.282-9.31 6.67-19.67 6.67-30.589 0-5.281-.559-10.431-1.62-15.395-24.89 8.333-52.278 2.551-71.66-14.534z" fill="#9dc6fb"/><path d="m279.203 96.195c-1.566 7.284-4.278 14.451-8.203 21.25-4.09 7.084-9.185 13.227-15 18.353 19.382 17.085 46.77 22.867 71.661 14.534-5.443-25.457-24.107-46.014-48.458-54.137z" fill="#86f1a7"/><path d="m256 135.798c-5.815-5.126-10.91-11.269-15-18.353-3.926-6.799-6.637-13.966-8.203-21.25-24.351 8.122-43.015 28.679-48.458 54.136 24.891 8.334 52.279 2.552 71.661-14.533z" fill="#cbafea"/><path d="m232.797 96.195c1.566 7.284 4.278 14.451 8.203 21.25 4.09 7.084 9.185 13.227 15 18.353 5.815-5.126 10.91-11.269 15-18.353 3.926-6.799 6.637-13.966 8.203-21.25-7.292-2.432-15.093-3.75-23.203-3.75s-15.911 1.318-23.203 3.75z" fill="#fff"/><path d="m355.545 133.371c-4.252 4.126-9.077 7.799-14.441 10.896-4.352 2.513-8.855 4.528-13.443 6.064 1.061 4.964 1.62 10.114 1.62 15.395 0 10.919-2.388 21.28-6.67 30.589h31.402c8.813 0 15.797-7.456 15.212-16.249-1.098-16.512-5.756-32.355-13.68-46.695z" fill="#fff"/><path d="m184.339 150.332c-4.588-1.536-9.091-3.551-13.443-6.064-5.365-3.097-10.189-6.77-14.441-10.896-7.924 14.34-12.582 30.182-13.68 46.695-.585 8.793 6.4 16.249 15.212 16.249h31.402c-4.282-9.31-6.67-19.67-6.67-30.589 0-5.281.559-10.431 1.62-15.395z" fill="#fff"/><path d="m355.545 133.371c-4.252 4.126-9.077 7.799-14.441 10.896-4.352 2.513-8.855 4.528-13.443 6.064 1.061 4.964 1.62 10.114 1.62 15.395 0 10.919-2.388 21.28-6.67 30.589h31.402c8.813 0 15.797-7.456 15.212-16.249-1.098-16.512-5.756-32.355-13.68-46.695z" fill="#f1f4f6"/><path d="m355.545 133.371c-4.252 4.126-9.077 7.799-14.441 10.896-4.352 2.513-8.855 4.528-13.443 6.064 1.061 4.964 1.62 10.114 1.62 15.395 0 10.919-2.388 21.28-6.67 30.589h31.402c8.813 0 15.797-7.456 15.212-16.249-1.098-16.512-5.756-32.355-13.68-46.695z" fill="#f1f4f6"/><path d="m329.281 165.726c0-5.281-.559-10.431-1.62-15.395-12.709 4.255-26.069 4.829-38.682 2.099-.04.437-.083.873-.13 1.308-1.395 12.831-12.181 22.578-25.087 22.578h-80.282c1.019 7.04 3.039 13.756 5.911 19.999h133.219c4.283-9.309 6.671-19.67 6.671-30.589z" fill="#80b4fb"/><path d="m143.088 176.316c-.124 1.246-.229 2.496-.312 3.75-.585 8.793 6.4 16.249 15.212 16.249h31.402c-2.872-6.243-4.892-12.959-5.911-20h-40.391z" fill="#f1f4f6"/><g fill="#222221"><path d="m421.331 216.237h-16.038l1.264-17.168c2.463-33.435-6.345-66.907-24.843-94.692 1.532-4.996 2.588-10.17 3.126-15.455.419-4.121-2.581-7.801-6.702-8.221-4.125-.423-7.802 2.581-8.221 6.702-2.294 22.538-16.176 42.801-37.249 52.83-7.282-21.86-23.755-39.78-45.027-48.852 3.119-23.585-4.352-47.367-20.286-64.896 34.762-23.696 82.355-9.125 98.103 29.663 1.183 2.914 3.989 4.681 6.952 4.681 5.281 0 8.957-5.371 6.947-10.323-19.94-49.123-80.948-66.053-123.357-34.337-38.988-29.16-94.279-17.572-118.421 24.245-10.946 18.959-14.065 41.765-7.303 63.978-18.491 27.782-27.295 61.248-24.833 94.678l1.264 17.168h-16.038c-21.062 0-38.196 17.135-38.196 38.196v3.357c0 34.76 27.607 63.194 62.047 64.528l.678 9.207c1.385 18.807 8.216 37.131 20.303 54.464 2.373 3.404 7.05 4.227 10.442 1.862 3.397-2.369 4.231-7.044 1.862-10.442-10.525-15.093-16.462-30.902-17.647-46.986-3.267-44.364-6.025-81.801-9.755-132.456-2.003-27.206 3.898-53.495 17.129-76.788 2.781 4.841 6.054 9.365 9.772 13.512-6.925 14.023-10.961 29.092-12.011 44.876-.871 13.103 9.554 24.247 22.696 24.247h117.595c4.142 0 7.5-3.358 7.5-7.5s-3.358-7.5-7.5-7.5h-81.202c-3.564-9.483-4.757-19.414-3.896-29.033 22.769 4.912 46.794-.308 65.515-14.327 18.72 14.019 42.743 19.238 65.515 14.326.861 9.619-.333 19.55-3.896 29.034h-7.036c-4.142 0-7.5 3.358-7.5 7.5s3.358 7.5 7.5 7.5h43.429c13.131 0 23.567-11.134 22.696-24.247-1.051-15.807-5.098-30.896-12.041-44.937 3.713-4.161 6.986-8.693 9.766-13.516 13.257 23.309 19.171 49.621 17.166 76.852-16.214 220.16 4.832-65.616-9.755 132.456-4.365 59.27-80.125 111.278-125.843 111.278-19.802 0-55.789-12.976-85.593-39.264-3.105-2.74-7.846-2.443-10.585.664-2.74 3.106-2.443 7.846.664 10.585 4.731 4.173 9.748 8.138 14.953 11.851v22.232c0 11.603-6.759 22.343-17.22 27.362l-30.88 14.818c-4.912 2.357-7.499 7.714-6.29 13.027s5.858 9.023 11.307 9.023h247.29c5.449 0 10.098-3.711 11.307-9.024s-1.378-10.67-6.29-13.026l-30.88-14.818c-10.461-5.019-17.22-15.759-17.22-27.362v-22.258c31.022-22.241 57.372-55.038 60.24-93.987l.678-9.207c34.44-1.333 62.047-29.767 62.047-64.528v-3.357c-.003-21.06-17.138-38.195-38.199-38.195zm-353.858 41.554v-3.357c0-12.791 10.406-23.197 23.197-23.197h17.142l5.597 75.998c-25.644-1.87-45.936-23.332-45.936-49.444zm205.596-171.037c-10.912-2.349-22.649-2.474-34.139 0-1.678-18.449 4.523-36.819 17.069-50.46 12.548 13.641 18.748 32.011 17.07 50.46zm-122.5-38.84c19.135-33.142 62.353-43.054 94.075-21.428-15.934 17.529-23.405 41.311-20.286 64.896-21.271 9.072-37.745 26.992-45.027 48.852-34.999-16.656-47.826-59.301-28.762-92.32zm-.31 132.65c.82-12.321 3.717-24.14 8.633-35.253 5.155 3.871 10.871 7.208 17.017 9.831-1.423 10.873-.697 22.449 2.653 33.673h-20.574c-4.478.001-8.026-3.777-7.729-8.251zm43.262-35.47c5.625-17.013 18.088-31.11 34.27-38.81 3.455 10.363 9.142 20.328 16.868 28.848-14.914 10.174-33.497 13.805-51.138 9.962zm62.479-19.788c-6.285-6.859-11.094-15.066-14.012-23.866 9.184-1.992 18.822-1.996 28.024 0-2.916 8.795-7.724 17.004-14.012 23.866zm11.342 9.825c7.352-8.106 13.238-17.957 16.867-28.847 16.182 7.7 28.645 21.797 34.27 38.81-17.642 3.845-36.224.212-51.137-9.963zm86.67 53.685h-20.574c3.35-11.223 4.077-22.798 2.653-33.673 5.979-2.553 11.697-5.833 17.009-9.847 4.92 11.117 7.821 22.942 8.641 35.269.297 4.467-3.245 8.251-7.729 8.251zm-6.719 299.84 17.39 8.345h-217.366l17.39-8.345c15.631-7.499 25.731-23.548 25.731-40.885v-12.52c22.605 13.242 46.811 21.451 65.562 21.451 17.874 0 42.17-7.72 65.562-21.443v12.512c0 17.337 10.1 33.385 25.731 40.885zm97.234-230.865c0 26.112-20.293 47.574-45.936 49.444l5.597-75.998h17.143c12.791 0 23.197 10.406 23.197 23.197v3.357z"/><path d="m236.029 238.294h-59.763c-4.142 0-7.5 3.358-7.5 7.5s3.358 7.5 7.5 7.5h59.763c4.142 0 7.5-3.358 7.5-7.5s-3.358-7.5-7.5-7.5z"/><path d="m283.471 305.114v-39.349c0-6.877 5.595-12.471 12.471-12.471h39.792c4.142 0 7.5-3.358 7.5-7.5s-3.358-7.5-7.5-7.5h-39.792c-15.148 0-27.471 12.323-27.471 27.471v39.349c0 6.877-5.595 12.471-12.471 12.471-4.142 0-7.5 3.358-7.5 7.5s3.358 7.5 7.5 7.5c15.148 0 27.471-12.323 27.471-27.471z"/><path d="m208.633 380.58c0 4.142 3.358 7.5 7.5 7.5h79.734c4.142 0 7.5-3.358 7.5-7.5s-3.358-7.5-7.5-7.5h-79.734c-4.142 0-7.5 3.358-7.5 7.5z"/></g></g></svg>